<?xml version="1.0" encoding="utf-8"?>
<!-- Generator: Adobe Illustrator 27.5.0, SVG Export Plug-In . SVG Version: 6.00 Build 0)  -->
<svg version="1.1" id="Ebene_1" xmlns="http://www.w3.org/2000/svg" xmlns:xlink="http://www.w3.org/1999/xlink" x="0px" y="0px"
	 viewBox="0 0 64 64" style="enable-background:new 0 0 64 64;" xml:space="preserve">
<style type="text/css">
	.st0{fill:#FFFFFF;}
	.st1{fill-rule:evenodd;clip-rule:evenodd;fill:#FFFFFF;}
</style>
<g>
	<path class="st0" d="M44.5,28.4c0.8-0.8,0.7-2.1-0.1-2.8c-0.8-0.8-2.1-0.7-2.8,0.1L28,40.1l-5.6-5.9c-0.8-0.8-2-0.8-2.8-0.1
		c-0.8,0.8-0.8,2-0.1,2.8l7,7.5c0.4,0.4,0.9,0.6,1.5,0.6s1.1-0.2,1.5-0.6L44.5,28.4z"/>
	<path class="st1" d="M18,2C9.2,2,2,9.2,2,18v28c0,8.8,7.2,16,16,16h28c8.8,0,16-7.2,16-16V20.6c0-2.2-0.9-4.3-2.5-5.8L48.1,4.2
		C46.6,2.8,44.7,2,42.6,2L18,2z M6,18c0-6.6,5.4-12,12-12h24v6c0,4.4,3.6,8,8,8h8c0,0.2,0,0.4,0,0.6V46c0,6.6-5.4,12-12,12H18
		c-6.6,0-12-5.4-12-12L6,18z M46,12V7.7l8.9,8.3H50C47.8,16,46,14.2,46,12z"/>
</g>
</svg>
