<?xml version="1.0" encoding="iso-8859-1"?>
<!-- Generator: Adobe Illustrator 19.0.0, SVG Export Plug-In . SVG Version: 6.00 Build 0)  -->
<svg version="1.1" id="Capa_1" xmlns="http://www.w3.org/2000/svg" xmlns:xlink="http://www.w3.org/1999/xlink" x="0px" y="0px"
	 viewBox="0 0 512 512" style="enable-background:new 0 0 512 512;" xml:space="preserve">
<g>
	<g>
		<path d="M504.5,128.36h-28.737V97.258c0-4.142-3.357-7.5-7.5-7.5H137.499c-4.143,0-7.5,3.358-7.5,7.5c0,4.142,3.357,7.5,7.5,7.5
			h323.264v31.044c0,0.02-0.003,0.039-0.003,0.058c0,0.019,0.003,0.038,0.003,0.058v232.722H15V187.5c0-4.142-3.357-7.5-7.5-7.5
			S0,183.357,0,187.5v188.641c0,4.142,3.357,7.5,7.5,7.5h28.74v31.101c0,4.142,3.357,7.5,7.5,7.5H424.5c4.143,0,7.5-3.358,7.5-7.5
			c0-4.142-3.357-7.5-7.5-7.5H51.24v-23.601h417.022c4.143,0,7.5-3.358,7.5-7.5V143.36H497v263.88h-42.17
			c-4.143,0-7.5,3.358-7.5,7.5c0,4.142,3.357,7.5,7.5,7.5h49.67c4.143,0,7.5-3.358,7.5-7.5V135.86
			C512,131.719,508.643,128.36,504.5,128.36z"/>
	</g>
</g>
<g>
	<g>
		<path d="M107.168,89.758H7.5c-4.143,0-7.5,3.358-7.5,7.5v59.91c0,4.142,3.357,7.5,7.5,7.5s7.5-3.358,7.5-7.5v-52.41h92.168
			c4.143,0,7.5-3.358,7.5-7.5C114.668,93.117,111.311,89.758,107.168,89.758z"/>
	</g>
</g>
<g>
	<g>
		<path d="M269.158,334.823H99.916l-48.679-48.679v-77.861c0-4.142-3.357-7.5-7.5-7.5s-7.5,3.358-7.5,7.5v80.968
			c0,1.989,0.79,3.897,2.196,5.303l53.072,53.072c1.407,1.407,3.314,2.197,5.304,2.197h172.349c4.143,0,7.5-3.358,7.5-7.5
			C276.658,338.181,273.301,334.823,269.158,334.823z"/>
	</g>
</g>
<g>
	<g>
		<path d="M437.329,178.846l-53.072-53.072c-1.407-1.408-3.315-2.198-5.304-2.198H206.604c-4.143,0-7.5,3.358-7.5,7.5
			c0,4.142,3.357,7.5,7.5,7.5h169.242l48.679,48.679v77.862c0,4.142,3.357,7.5,7.5,7.5s7.5-3.358,7.5-7.5v-80.968
			C439.525,182.16,438.735,180.253,437.329,178.846z"/>
	</g>
</g>
<g>
	<g>
		<path d="M237.881,154.977c-45.062,0-81.722,36.66-81.722,81.722c0,45.062,36.66,81.722,81.722,81.722
			c45.063,0,81.723-36.66,81.723-81.722C319.604,191.638,282.944,154.977,237.881,154.977z M237.881,303.422
			c-36.79,0-66.722-29.931-66.722-66.722c0-36.791,29.932-66.722,66.722-66.722c36.791,0,66.723,29.931,66.723,66.722
			C304.604,273.49,274.672,303.422,237.881,303.422z"/>
	</g>
</g>
<g>
	<g>
		<path d="M264.535,263.354c-7.119,7.12-16.585,11.041-26.653,11.041c-10.069,0-19.535-3.921-26.654-11.041
			c-2.162-2.162-3.996-4.527-5.522-7.028h36.516c4.143,0,7.5-3.358,7.5-7.5c0-4.142-3.357-7.5-7.5-7.5h-41.724
			c-0.3-2.444-0.361-4.911-0.183-7.365h41.907c4.143,0,7.5-3.358,7.5-7.5c0-4.142-3.357-7.5-7.5-7.5h-37.598
			c1.708-3.206,3.906-6.217,6.604-8.915c14.696-14.697,38.609-14.698,53.308,0c2.93,2.929,7.678,2.929,10.607,0
			c2.929-2.929,2.929-7.678,0-10.606c-20.547-20.546-53.976-20.545-74.522,0c-5.698,5.699-9.81,12.39-12.347,19.521h-1.167
			c-4.143,0-7.5,3.358-7.5,7.5c-0.001,3.518,2.426,6.463,5.696,7.271c-0.145,2.594-0.103,5.197,0.132,7.786
			c-3.337,0.76-5.829,3.74-5.829,7.307c0,4.142,3.357,7.5,7.5,7.5h1.877c2.568,6.424,6.443,12.441,11.636,17.635
			c9.953,9.953,23.186,15.434,37.262,15.434c14.075,0,27.308-5.481,37.261-15.434c2.929-2.929,2.929-7.678,0-10.606
			C272.212,260.426,267.464,260.426,264.535,263.354z"/>
	</g>
</g>
<g>
	<g>
		<path d="M439.117,136.842l-13.286-13.287c-2.929-2.929-7.678-2.929-10.606,0c-2.93,2.929-2.93,7.677-0.001,10.606l13.286,13.287
			c1.465,1.465,3.384,2.197,5.303,2.197c1.919,0,3.839-0.732,5.303-2.197C442.046,144.519,442.046,139.771,439.117,136.842z"/>
	</g>
</g>
<g>
	<g>
		<path d="M56.635,335.44l-13.287-13.287c-2.928-2.93-7.677-2.929-10.607,0c-2.929,2.929-2.929,7.678,0.001,10.606l13.287,13.287
			c1.464,1.465,3.384,2.197,5.303,2.197c1.919,0,3.839-0.732,5.304-2.197C59.565,343.117,59.565,338.367,56.635,335.44z"/>
	</g>
</g>
<g>
</g>
<g>
</g>
<g>
</g>
<g>
</g>
<g>
</g>
<g>
</g>
<g>
</g>
<g>
</g>
<g>
</g>
<g>
</g>
<g>
</g>
<g>
</g>
<g>
</g>
<g>
</g>
<g>
</g>
</svg>
