<?xml version="1.0" encoding="utf-8"?>
<!-- Generator: Adobe Illustrator 27.4.0, SVG Export Plug-In . SVG Version: 6.00 Build 0)  -->
<svg version="1.1" id="icon" xmlns="http://www.w3.org/2000/svg" xmlns:xlink="http://www.w3.org/1999/xlink" x="0px" y="0px"
	 viewBox="0 0 953.9 555.6" style="enable-background:new 0 0 953.9 555.6;" xml:space="preserve">
<style type="text/css">
	.st0{fill:url(#o_00000113333493905903228670000012937480977158968490_);}
	.st1{fill:url(#o_00000169541187220299009010000007433896130730341775_);}
</style>
<linearGradient id="o_00000029732234786560554970000009958150677254659486_" gradientUnits="userSpaceOnUse" x1="388.18" y1="277.8056" x2="767.1101" y2="277.8056" gradientTransform="matrix(1 0 0 -1 0 555.5905)">
	<stop  offset="0" style="stop-color:#9660FF"/>
	<stop  offset="1" style="stop-color:#00A8FA"/>
</linearGradient>
<path id="o_00000058562781246375240390000003515514116771289526_" style="fill:url(#o_00000029732234786560554970000009958150677254659486_);" d="
	M742.1,177.8c-16.7-28.9-39.4-51.2-68.3-67c-28.9-15.8-61.1-23.7-96.7-23.7s-67.8,7.9-96.6,23.7c-28.9,15.8-51.7,38.1-68.3,67
	c-13.5,23.3-21.4,49.6-24,78.6h94.9c3-24.9,11.5-44.8,25.7-59.6c18-18.9,40.3-28.3,67-28.3s49.2,9.4,67.7,28.3
	c18.4,18.9,27.7,45.9,27.7,81c0,23.5-4.4,43.6-13.3,60c-8.9,16.4-20.8,28.8-35.7,37c-14.9,8.2-30.8,12.3-47.7,12.3
	c-1.6,0-3.2-0.1-4.8-0.2v81.4c1.6,0,3.2,0.1,4.8,0.1c36,0,68.5-7.9,97.7-23.7c29.1-15.8,52.2-38.1,69.3-67
	c17.1-28.9,25.7-62.2,25.7-100S758.8,206.7,742.1,177.8L742.1,177.8z"/>
<linearGradient id="o_00000003092097057647800880000002257592272849848494_" gradientUnits="userSpaceOnUse" x1="186.81" y1="277.7856" x2="565.73" y2="277.7856" gradientTransform="matrix(1 0 0 -1 0 555.5905)">
	<stop  offset="0" style="stop-color:#9660FF"/>
	<stop  offset="1" style="stop-color:#00A8FA"/>
</linearGradient>
<path id="o" style="fill:url(#o_00000003092097057647800880000002257592272849848494_);" d="M445.1,358.8
	c-18,18.9-40.3,28.3-67,28.3s-49.2-9.5-67.6-28.3c-18.4-18.9-27.7-45.9-27.7-81c0-23.6,4.4-43.6,13.3-60c8.9-16.4,20.8-28.8,35.7-37
	c14.9-8.2,30.8-12.3,47.7-12.3c1.6,0,3.2,0.1,4.8,0.2V87.3c-1.6,0-3.2-0.1-4.8-0.1c-36,0-68.6,7.9-97.6,23.7
	c-29.1,15.8-52.2,38.1-69.3,67c-17.1,28.9-25.7,62.2-25.7,100s8.3,71.1,25,100c16.7,28.9,39.4,51.2,68.3,67
	c28.9,15.8,61.1,23.7,96.7,23.7s67.8-7.9,96.7-23.7c28.9-15.8,51.7-38.1,68.3-67c13.5-23.3,21.4-49.6,24-78.6h-95
	C467.8,324,459.3,343.9,445.1,358.8L445.1,358.8z"/>
</svg>
