<?xml version="1.0" encoding="UTF-8"?>
<svg xmlns="http://www.w3.org/2000/svg" viewBox="0 0 64 64" width="512" height="512"><g id="Layer_3" data-name="Layer 3"><path d="M43.035,23.384a1,1,0,1,0-1.575,1.232A11.879,11.879,0,0,1,44,32a12,12,0,1,1-5.539-10.114A1,1,0,0,0,39.539,20.2a14.009,14.009,0,1,0,3.5,3.183Z"/><path d="M47.244,43a1.009,1.009,0,0,1-.114-1.271,17.876,17.876,0,0,0,2.332-5.381l2.575,1.288c-.011.121-.037.239-.037.363a4.012,4.012,0,1,0,.708-2.264l-2.86-1.43a18.271,18.271,0,0,0,.027-4.442,17.679,17.679,0,0,0-2.753-7.572l2.267-2.267a9.023,9.023,0,1,0-1.414-1.414l-2.041,2.041a17.954,17.954,0,0,0-11.617-6.507c-.44-.055-.879-.088-1.317-.112V11.858a4,4,0,1,0-2,0v2.175a17.888,17.888,0,0,0-11,4.552l-3.974-3.974a9.023,9.023,0,1,0-1.414,1.414L18.585,20a17.9,17.9,0,0,0-4.553,11H11.858a4,4,0,1,0,0,2h2.175c.023.438.057.877.112,1.317A17.7,17.7,0,0,0,17.7,42.885l-3.09,3.09a9.023,9.023,0,1,0,1.414,1.414l2.982-2.982a17.938,17.938,0,0,0,10.857,5.468,18.382,18.382,0,0,0,3.344.081l.667,2.668A3.984,3.984,0,1,0,36,52c-.073,0-.141.018-.214.022l-.58-2.319A17.8,17.8,0,0,0,41.73,47.13,1.007,1.007,0,0,1,43,47.244L58.879,63.121A2.994,2.994,0,0,0,61,64c.081,0,.162,0,.243-.01a3.008,3.008,0,0,0,2.2-1.249,3.083,3.083,0,0,0-.4-3.938ZM56,36a2,2,0,1,1-2,2A2,2,0,0,1,56,36ZM55,6a7,7,0,1,1-7,7A7.008,7.008,0,0,1,55,6ZM9,60a7,7,0,1,1,7-7A7.008,7.008,0,0,1,9,60Zm29-4a2,2,0,1,1-2-2A2,2,0,0,1,38,56ZM30,8a2,2,0,1,1,2,2A2,2,0,0,1,30,8ZM9,16a7,7,0,1,1,7-7A7.008,7.008,0,0,1,9,16ZM8,34a2,2,0,1,1,2-2A2,2,0,0,1,8,34ZM61.821,61.573a1,1,0,0,1-.739.424.981.981,0,0,1-.789-.29L44.416,45.83a2.966,2.966,0,0,0-2.107-.876,3.062,3.062,0,0,0-1.663.5A15.862,15.862,0,0,1,30.1,47.889,16,16,0,1,1,47.889,30.1,15.856,15.856,0,0,1,45.45,40.646a2.994,2.994,0,0,0,.38,3.77l15.8,15.8A1.084,1.084,0,0,1,61.821,61.573Z"/><path d="M24,36v1.786a3.038,3.038,0,0,0,1.727,2.724,13.965,13.965,0,0,0,12.545,0A3.037,3.037,0,0,0,40,37.786V36a8.008,8.008,0,0,0-4.982-7.4A3.963,3.963,0,0,0,36,26a4,4,0,0,0-8,0,3.963,3.963,0,0,0,.982,2.6A8.008,8.008,0,0,0,24,36Zm6-10a2,2,0,1,1,2,2A2,2,0,0,1,30,26Zm2,4a6.006,6.006,0,0,1,6,6v1.786a1.027,1.027,0,0,1-.588.918,11.893,11.893,0,0,1-10.824,0A1.027,1.027,0,0,1,26,37.786V36A6.006,6.006,0,0,1,32,30Z"/><path d="M51.636,18.369a9.3,9.3,0,0,0,6.728,0A2.542,2.542,0,0,0,60,16a4.983,4.983,0,0,0-2.52-4.315,3,3,0,1,0-4.96,0A4.983,4.983,0,0,0,50,16,2.542,2.542,0,0,0,51.636,18.369ZM54,10a1,1,0,1,1,1,1A1,1,0,0,1,54,10Zm1,3a3,3,0,0,1,3,3,.532.532,0,0,1-.34.5h0a7.249,7.249,0,0,1-5.319,0A.532.532,0,0,1,52,16,3,3,0,0,1,55,13Z"/><path d="M11.48,51.685a3,3,0,1,0-4.96,0A4.983,4.983,0,0,0,4,56a2.542,2.542,0,0,0,1.636,2.369,9.3,9.3,0,0,0,6.728,0A2.542,2.542,0,0,0,14,56,4.983,4.983,0,0,0,11.48,51.685ZM8,50a1,1,0,1,1,1,1A1,1,0,0,1,8,50Zm3.66,6.5h0a7.249,7.249,0,0,1-5.319,0A.532.532,0,0,1,6,56a3,3,0,0,1,6,0A.532.532,0,0,1,11.66,56.5Z"/><path d="M11.48,7.685a3,3,0,1,0-4.96,0A4.983,4.983,0,0,0,4,12a2.542,2.542,0,0,0,1.636,2.369,9.3,9.3,0,0,0,6.728,0A2.542,2.542,0,0,0,14,12,4.983,4.983,0,0,0,11.48,7.685ZM8,6A1,1,0,1,1,9,7,1,1,0,0,1,8,6Zm3.66,6.5h0a7.249,7.249,0,0,1-5.319,0A.532.532,0,0,1,6,12a3,3,0,0,1,6,0A.532.532,0,0,1,11.66,12.5Z"/></g></svg>
