<?xml version="1.0" encoding="utf-8"?>
<!-- Generator: Adobe Illustrator 27.4.0, SVG Export Plug-In . SVG Version: 6.00 Build 0)  -->
<svg version="1.1" id="SimplyHooked" xmlns="http://www.w3.org/2000/svg" xmlns:xlink="http://www.w3.org/1999/xlink" x="0px"
	 y="0px" viewBox="0 0 1239.8 452.6" style="enable-background:new 0 0 1239.8 452.6;" xml:space="preserve">
<style type="text/css">
	.st0{fill:url(#o_00000152968496785868740180000016280339618810317975_);}
	.st1{fill:url(#o_00000023279073195330050210000016490742353592416662_);}
</style>
<path id="d" d="M1084.7,270.8c-6.6,0-12.5-1.7-17.7-5.1s-9.3-8.3-12.4-14.8c-3-6.5-4.5-14.3-4.5-23.6s1.5-17.2,4.6-23.7
	c3.1-6.4,7.3-11.3,12.5-14.6c5.2-3.3,11.1-4.9,17.6-4.9c4.9,0,9,0.8,12.2,2.5c3.2,1.7,5.7,3.6,7.6,6c1.9,2.3,3.3,4.5,4.3,6.6h0.8
	v-41.9h19.9v112.1H1110v-13.2h-1.2c-1,2-2.5,4.2-4.4,6.5c-1.9,2.3-4.5,4.2-7.7,5.8C1093.5,270,1089.5,270.8,1084.7,270.8
	L1084.7,270.8z M1090.2,254.5c4.2,0,7.8-1.1,10.7-3.4c3-2.3,5.2-5.5,6.7-9.6c1.5-4.1,2.3-8.9,2.3-14.3s-0.8-10.2-2.3-14.2
	c-1.5-4-3.7-7.1-6.7-9.4c-2.9-2.2-6.5-3.3-10.8-3.3s-8.1,1.1-11.1,3.4c-2.9,2.3-5.2,5.5-6.7,9.5c-1.5,4.1-2.2,8.7-2.2,13.9
	s0.8,9.9,2.3,14s3.8,7.3,6.7,9.7C1082.2,253.3,1085.9,254.5,1090.2,254.5L1090.2,254.5z"/>
<path id="e" d="M1036.7,226.6c0-7.4-1-13.7-3.1-19.1c-2-5.3-4.8-9.8-8.4-13.2c-3.6-3.5-7.6-6-12.3-7.7c-4.6-1.7-9.5-2.5-14.7-2.5
	c-8,0-15,1.8-21,5.5c-5.9,3.7-10.6,8.8-13.9,15.3c-3.3,6.5-5,14-5,22.8c0,8.8,1.6,16.4,4.9,22.9c3.3,6.5,8,11.5,14.1,15
	c6.1,3.5,13.4,5.3,21.8,5.3l0,0c6.5,0,12.3-1,17.4-3c5.1-2,9.2-4.8,12.5-8.4c3.3-3.6,5.5-7.9,6.7-12.8l-18.5-2.1
	c-0.9,2.4-2.2,4.4-3.9,6s-3.7,2.8-6.1,3.6c-2.3,0.8-5,1.2-7.8,1.2c-4.3,0-8.1-0.9-11.3-2.8c-3.2-1.8-5.7-4.5-7.5-8
	c-1.7-3.4-2.6-7.4-2.7-12h58.6V226.6z M978.2,219.3c0.2-3.3,1-6.4,2.6-9.2c1.7-3.1,4.1-5.7,7.2-7.7c3.1-1.9,6.6-2.9,10.7-2.9
	c3.8,0,7.1,0.8,10,2.6c2.9,1.7,5.1,4,6.7,7c1.6,3,2.4,6.3,2.5,10.2H978.2z"/>
<polygon id="k" points="919.9,221.5 952.5,185.2 929.4,185.2 899.1,219 897.8,219 897.8,157.2 878,157.2 878,269.3 897.8,269.3 
	897.8,241 905,233.3 930.7,269.3 954.4,269.3 "/>
<g id="oo">
	
		<linearGradient id="o_00000011746691147596828130000011173043317884659881_" gradientUnits="userSpaceOnUse" x1="774.58" y1="226.1206" x2="860.8899" y2="226.1206" gradientTransform="matrix(1 0 0 -1 0 453.5905)">
		<stop  offset="0" style="stop-color:#9660FF"/>
		<stop  offset="1" style="stop-color:#00A8FA"/>
	</linearGradient>
	
		<path id="o_00000094597458362061672680000005117929277993877439_" style="fill:url(#o_00000011746691147596828130000011173043317884659881_);" d="
		M855.2,204.7c-3.8-6.6-9-11.7-15.6-15.3c-6.6-3.6-13.9-5.4-22-5.4s-15.4,1.8-22,5.4c-6.6,3.6-11.8,8.7-15.6,15.3
		c-3.1,5.3-4.9,11.3-5.5,17.9h21.6c0.7-5.7,2.6-10.2,5.8-13.6c4.1-4.3,9.2-6.4,15.3-6.4s11.2,2.1,15.4,6.4
		c4.2,4.3,6.3,10.4,6.3,18.4c0,5.4-1,9.9-3,13.7c-2,3.7-4.7,6.6-8.1,8.4s-7,2.8-10.8,2.8c-0.4,0-0.7,0-1.1-0.1v18.5
		c0.4,0,0.7,0,1.1,0c8.2,0,15.6-1.8,22.2-5.4c6.6-3.6,11.9-8.7,15.8-15.3c3.9-6.6,5.8-14.2,5.8-22.8S859,211.3,855.2,204.7
		L855.2,204.7z"/>
	
		<linearGradient id="o_00000145739267881318262260000002558388531421482412_" gradientUnits="userSpaceOnUse" x1="728.71" y1="226.1105" x2="815.0001" y2="226.1105" gradientTransform="matrix(1 0 0 -1 0 453.5905)">
		<stop  offset="0" style="stop-color:#9660FF"/>
		<stop  offset="1" style="stop-color:#00A8FA"/>
	</linearGradient>
	<path id="o" style="fill:url(#o_00000145739267881318262260000002558388531421482412_);" d="M787.5,245.9
		c-4.1,4.3-9.2,6.4-15.3,6.4s-11.2-2.1-15.4-6.4c-4.2-4.3-6.3-10.4-6.3-18.4c0-5.4,1-9.9,3-13.7c2-3.7,4.7-6.6,8.1-8.4
		s7-2.8,10.8-2.8c0.4,0,0.7,0,1.1,0.1v-18.5c-0.4,0-0.7,0-1.1,0c-8.2,0-15.6,1.8-22.2,5.4c-6.6,3.6-11.9,8.7-15.8,15.3
		c-3.9,6.6-5.8,14.2-5.8,22.8s1.9,16.2,5.7,22.8c3.8,6.6,9,11.7,15.6,15.3c6.6,3.6,13.9,5.4,22,5.4s15.4-1.8,22-5.4
		c6.6-3.6,11.8-8.7,15.6-15.3c3.1-5.3,4.9-11.3,5.5-17.9h-21.6C792.7,238,790.8,242.5,787.5,245.9L787.5,245.9z"/>
</g>
<path id="H" d="M618.3,269.3V157.2h20.3v47.5h52v-47.5h20.4v112.1h-20.4v-47.6h-52v47.6H618.3z"/>
<path id="y" d="M540.9,300.8c-2.7,0-5.2-0.2-7.5-0.6c-2.3-0.4-4.1-0.9-5.4-1.4l4.6-15.4c2.9,0.8,5.5,1.2,7.7,1.2
	c2.3,0,4.3-0.7,6-2.1c1.7-1.4,3.2-3.6,4.4-6.8l1.7-4.5L522,185.2h21l19.4,63.5h0.9l19.4-63.5h21.1l-33.7,94.3
	c-1.6,4.5-3.7,8.3-6.2,11.5c-2.6,3.2-5.8,5.6-9.5,7.3C550.6,300,546.1,300.8,540.9,300.8L540.9,300.8z"/>
<path id="l" d="M508.2,157.2v112.1h-19.8V157.2H508.2z"/>
<path id="p" d="M392.2,300.8V185.2h19.5v13.9h1.1c1-2,2.5-4.2,4.3-6.6c1.9-2.3,4.4-4.3,7.6-6c3.2-1.7,7.2-2.5,12.1-2.5
	c6.5,0,12.4,1.7,17.6,4.9c5.2,3.3,9.4,8.2,12.5,14.6c3.1,6.4,4.6,14.3,4.6,23.7s-1.5,17.1-4.5,23.6c-3,6.5-7.1,11.4-12.4,14.8
	c-5.2,3.4-11.1,5.1-17.7,5.1c-4.8,0-8.8-0.8-12-2.4c-3.2-1.6-5.7-3.5-7.6-5.8c-1.9-2.3-3.4-4.4-4.5-6.5H412v44.8L392.2,300.8
	L392.2,300.8z M411.6,227.3c0,5.4,0.8,10.2,2.3,14.3c1.6,4.1,3.8,7.3,6.7,9.6c2.9,2.3,6.5,3.4,10.7,3.4s8-1.2,11-3.5
	c3-2.4,5.2-5.6,6.7-9.7c1.5-4.1,2.3-8.8,2.3-14s-0.8-9.9-2.2-13.9c-1.5-4.1-3.7-7.2-6.7-9.5c-3-2.3-6.6-3.4-11-3.4
	s-7.8,1.1-10.8,3.3c-3,2.2-5.2,5.4-6.7,9.4C412.3,217.1,411.6,221.8,411.6,227.3L411.6,227.3z"/>
<path id="m" d="M253.8,269.3v-84.1h18.9v14.3h1c1.8-4.8,4.6-8.6,8.7-11.3c4-2.7,8.9-4.1,14.5-4.1s10.5,1.4,14.4,4.1
	c3.9,2.8,6.7,6.5,8.3,11.2h0.9c1.9-4.7,5-8.4,9.5-11.2c4.4-2.8,9.7-4.2,15.8-4.2c7.7,0,14,2.4,18.9,7.3c4.9,4.9,7.3,12,7.3,21.4
	v56.4h-19.9v-53.4c0-5.2-1.4-9-4.2-11.5c-2.8-2.4-6.2-3.6-10.2-3.6c-4.8,0-8.5,1.5-11.2,4.5c-2.7,3-4,6.8-4,11.6v52.4h-19.4v-54.2
	c0-4.3-1.3-7.8-3.9-10.4c-2.6-2.6-6-3.9-10.2-3.9c-2.9,0-5.4,0.7-7.8,2.2c-2.3,1.4-4.2,3.5-5.6,6.1c-1.4,2.6-2.1,5.6-2.1,9.1v51.1
	L253.8,269.3L253.8,269.3z"/>
<path id="i" d="M223.6,173.3c-3.1,0-5.9-1.1-8.1-3.2c-2.3-2.1-3.4-4.6-3.4-7.6s1.1-5.5,3.4-7.6c2.3-2.1,5-3.1,8.1-3.1
	s5.9,1.1,8.1,3.2c2.2,2.1,3.4,4.6,3.4,7.6s-1.1,5.5-3.4,7.6C229.4,172.2,226.7,173.3,223.6,173.3z M213.6,269.3v-84.1h19.8v84.1
	H213.6z"/>
<path id="S" d="M175.3,188c-0.5-4.8-2.6-8.5-6.4-11.2c-3.8-2.7-8.7-4-14.7-4c-4.2,0-7.9,0.6-10.9,1.9c-3,1.3-5.3,3-6.9,5.2
	c-1.6,2.2-2.4,4.7-2.5,7.5c0,2.4,0.5,4.4,1.6,6.1c1.1,1.7,2.6,3.2,4.4,4.4c1.9,1.2,3.9,2.2,6.2,3c2.3,0.8,4.5,1.5,6.8,2l10.5,2.6
	c4.2,1,8.3,2.3,12.2,4c3.9,1.7,7.4,3.8,10.6,6.4c3.1,2.6,5.6,5.6,7.4,9.3c1.8,3.6,2.7,7.8,2.7,12.7c0,6.6-1.7,12.3-5,17.3
	c-3.4,5-8.2,8.9-14.5,11.6c-6.3,2.8-14,4.2-23,4.2s-16.3-1.3-22.7-4c-6.4-2.7-11.4-6.6-15-11.8c-3.6-5.2-5.5-11.5-5.8-18.9h20
	c0.3,3.9,1.5,7.1,3.6,9.8c2.1,2.6,4.9,4.5,8.3,5.8c3.4,1.3,7.2,1.9,11.5,1.9s8.3-0.7,11.6-2s6-3.2,7.9-5.6c1.9-2.4,2.9-5.2,2.9-8.4
	c0-2.9-0.9-5.3-2.6-7.2c-1.7-1.9-4-3.5-7-4.8s-6.5-2.5-10.5-3.5l-12.7-3.3c-9.2-2.4-16.5-6-21.9-10.8c-5.3-4.8-8-11.3-8-19.3
	c0-6.6,1.8-12.4,5.4-17.4c3.6-4.9,8.5-8.8,14.7-11.6c6.2-2.8,13.2-4.1,21.1-4.1s14.9,1.4,20.9,4.1c6,2.8,10.7,6.6,14.1,11.4
	c3.4,4.9,5.2,10.5,5.3,16.8L175.3,188L175.3,188z"/>
</svg>
