<?xml version="1.0" encoding="utf-8"?>
<!-- Generator: Adobe Illustrator 27.5.0, SVG Export Plug-In . SVG Version: 6.00 Build 0)  -->
<svg version="1.1" id="Capa_1" xmlns="http://www.w3.org/2000/svg" xmlns:xlink="http://www.w3.org/1999/xlink" x="0px" y="0px"
	 viewBox="0 0 512 512" style="enable-background:new 0 0 512 512;" xml:space="preserve">
<style type="text/css">
	.st0{fill:url(#SVGID_1_);}
	.st1{fill:url(#SVGID_00000144307021569147790460000007111432629204066712_);}
</style>
<g>
	<g>
		
			<linearGradient id="SVGID_1_" gradientUnits="userSpaceOnUse" x1="256" y1="-0.1102" x2="256" y2="597.2228" gradientTransform="matrix(1 0 0 -1 0 511.8898)">
			<stop  offset="0" style="stop-color:#1798C9;stop-opacity:0.05"/>
			<stop  offset="1" style="stop-color:#4C3B8F;stop-opacity:0.5"/>
		</linearGradient>
		<circle class="st0" cx="256" cy="256" r="256"/>
	</g>
	
		<linearGradient id="SVGID_00000043415968358199663060000017266007084478707617_" gradientUnits="userSpaceOnUse" x1="255.9995" y1="104.8908" x2="255.9995" y2="406.8888" gradientTransform="matrix(1 0 0 -1 0 511.8898)">
		<stop  offset="0" style="stop-color:#0698D6"/>
		<stop  offset="1" style="stop-color:#493E91"/>
	</linearGradient>
	<path style="fill:url(#SVGID_00000043415968358199663060000017266007084478707617_);" d="M407,235.35v41.29
		c0,4.08-2.79,7.63-6.76,8.6l-15.72,3.82c-3.09,12.05-7.89,23.58-14.3,34.39l8.45,13.87c2.12,3.49,1.59,7.97-1.3,10.86l-29.2,29.2
		c-2.89,2.89-7.37,3.42-10.86,1.3l-13.87-8.45c-8.32,4.94-17.07,8.91-26.16,11.89v-54.59c24.68-14.28,41.29-40.96,41.29-71.53
		c0-45.61-36.97-82.58-82.58-82.58s-82.58,36.97-82.58,82.58c0,30.56,16.61,57.25,41.29,71.53v54.59
		c-9.09-2.98-17.83-6.95-26.16-11.89l-13.87,8.45c-3.49,2.12-7.97,1.59-10.86-1.3l-29.2-29.2c-2.89-2.89-3.42-7.37-1.3-10.86
		l8.45-13.87c-6.41-10.81-11.2-22.34-14.3-34.39l-15.72-3.82c-3.97-0.96-6.76-4.52-6.76-8.6v-41.29c0-4.08,2.79-7.63,6.76-8.6
		l15.72-3.82c3.09-12.05,7.89-23.58,14.3-34.39l-8.45-13.87c-2.12-3.49-1.59-7.97,1.3-10.86l29.2-29.2
		c2.89-2.89,7.37-3.42,10.86-1.3l13.87,8.45c10.81-6.41,22.34-11.2,34.39-14.3l3.82-15.72c0.96-3.97,4.52-6.76,8.6-6.76h41.29
		c4.08,0,7.63,2.79,8.6,6.76l3.82,15.72c12.05,3.1,23.58,7.89,34.39,14.3l13.87-8.45c3.49-2.12,7.97-1.59,10.86,1.3l29.2,29.2
		c2.89,2.89,3.42,7.37,1.3,10.86l-8.45,13.87c6.41,10.81,11.2,22.34,14.3,34.39l15.72,3.82C404.21,227.72,407,231.27,407,235.35
		L407,235.35z M286.29,219.88c-3.82-3.2-9.64-0.42-9.64,4.56v19.77L256,261.9l-20.65-17.7v-19.77c0-4.98-5.82-7.76-9.64-4.56
		c-10.32,8.64-16.9,21.6-16.9,36.12c0,17.46,9.5,32.66,23.59,40.82v101.33c0,4.89,3.96,8.85,8.85,8.85h29.49
		c4.89,0,8.85-3.96,8.85-8.85V296.82c14.09-8.16,23.59-23.37,23.59-40.82C303.19,241.48,296.61,228.52,286.29,219.88L286.29,219.88z
		"/>
</g>
</svg>
