<svg id="Layer_1" viewBox="0 0 128 128" xmlns="http://www.w3.org/2000/svg" data-name="Layer 1"><g id="_11-128-blue" data-name="11-128-blue"><path d="m46.58 113.52h34.85v3.01h-34.85z"/><path d="m120.21 124h-112.42a7.53 7.53 0 0 1 -7.52-7.53v-10.42h127.46v10.42a7.53 7.53 0 0 1 -7.52 7.53zm-116.93-14.93v7.4a4.52 4.52 0 0 0 4.51 4.53h112.42a4.52 4.52 0 0 0 4.51-4.52v-7.4z"/><path d="m119.74 50.47h3.01v49.63h-3.01z"/><path d="m8.26 100.09h-3v-64.72a11.47 11.47 0 0 1 11.45-11.46h42.47v3h-42.47a8.47 8.47 0 0 0 -8.45 8.45z"/><path d="m112.28 52.8h3.01v47.29h-3.01z"/><path d="m15.72 100.09h-3v-62.23a6.49 6.49 0 0 1 6.49-6.48h40v3h-40a3.48 3.48 0 0 0 -3.48 3.47z"/><path d="m56.53 79.2a9 9 0 0 1 -9-9v-5a9 9 0 0 1 18 0v5a9 9 0 0 1 -9 9zm0-19.92a6 6 0 0 0 -6 6v5a6 6 0 0 0 11.92 0v-5a6 6 0 0 0 -5.92-6z"/><path d="m80.44 100.09h-3v-5a8.46 8.46 0 0 0 -8.44-8.43h-3a11.36 11.36 0 0 1 -18.8 0h-3a8.46 8.46 0 0 0 -8.45 8.45v5h-3v-5a11.47 11.47 0 0 1 11.34-11.46h4.73l.44.75a8.37 8.37 0 0 0 14.55 0l.43-.75h4.76a11.47 11.47 0 0 1 11.44 11.46z"/><path d="m71.82 59.84 8.13-13h-3.5a11.48 11.48 0 0 1 -11.45-11.47v-19.91a11.48 11.48 0 0 1 11.45-11.46h39.82a11.47 11.47 0 0 1 11.46 11.46v19.91a11.47 11.47 0 0 1 -11.46 11.47h-23zm4.63-52.84a8.46 8.46 0 0 0 -8.45 8.46v19.91a8.46 8.46 0 0 0 8.45 8.46h8.93l-4.31 6.9 11.41-6.9h23.79a8.46 8.46 0 0 0 8.45-8.46v-19.91a8.46 8.46 0 0 0 -8.45-8.46z"/><path d="m83.91 28.89h4.98v3.01h-4.98z"/><path d="m93.87 28.89h4.98v3.01h-4.98z"/><path d="m103.83 28.89h4.98v3.01h-4.98z"/></g></svg>