<?xml version="1.0" encoding="utf-8"?>
<!-- Generator: Adobe Illustrator 27.5.0, SVG Export Plug-In . SVG Version: 6.00 Build 0)  -->
<svg version="1.1" id="Capa_1" xmlns="http://www.w3.org/2000/svg" xmlns:xlink="http://www.w3.org/1999/xlink" x="0px" y="0px"
	 viewBox="0 0 512 512" style="enable-background:new 0 0 512 512;" xml:space="preserve">
<style type="text/css">
	.st0{fill:#FFFFFF;}
</style>
<g>
	<g>
		<path class="st0" d="M487.59,299.89h-7.66v-69.01c0-10.93-5.44-20.6-13.74-26.48V195c0-13.63-11.09-24.72-24.72-24.72h-5.72
			l21.89-32.12c7.34-10.77,4.55-25.5-6.22-32.83L302.88,4.11c-5.21-3.56-11.5-4.87-17.7-3.69c-6.2,1.17-11.57,4.69-15.13,9.91
			l-128.2,188.12h-35.68l8.61-87.13c0.1-0.98,0.74-1.83,1.62-2.17c11.09-4.18,20.7-11.99,27.06-21.99c0.5-0.79,1.45-1.24,2.42-1.14
			l55.96,5.53c4.01,0.39,7.58-2.53,7.98-6.54s-2.53-7.58-6.54-7.98l-55.96-5.53c-6.49-0.64-12.69,2.36-16.17,7.82
			c-4.68,7.35-11.74,13.09-19.9,16.16c-6.14,2.31-10.35,7.83-11,14.39l-8.75,88.56h-9.3l13.61-137.8c0.49-4.96,4.92-8.6,9.88-8.11
			l113.07,11.17c4.01,0.39,7.58-2.53,7.98-6.54s-2.53-7.58-6.54-7.98L107.14,38.02c-12.96-1.28-24.56,8.23-25.84,21.19L70.33,170.28
			H51.64c-13.63,0-24.72,11.09-24.72,24.72v6.41c-11.15,5.13-18.92,16.41-18.92,29.46v248.7c0,17.88,14.55,32.43,32.43,32.43H447.5
			c17.88,0,32.43-14.55,32.43-32.43v-69.01h7.66c9.04,0,16.4-7.36,16.4-16.4V316.3C503.99,307.25,496.63,299.89,487.59,299.89z
			 M441.46,184.88L441.46,184.88c5.59,0,10.13,4.54,10.13,10.13v3.72c-1.34-0.17-2.7-0.27-4.09-0.27h-30.95l9.25-13.58H441.46z
			 M282.11,18.55c1.36-2,3.42-3.34,5.79-3.79c0.57-0.11,1.14-0.16,1.7-0.16c1.8,0,3.55,0.54,5.07,1.57L443.2,117.39
			c4.12,2.81,5.19,8.44,2.38,12.56l-46.69,68.51h-11.2l22.89-33.59c3.71-5.45,4.02-12.38,0.8-18.09
			c-4.28-7.59-6.02-16.53-4.89-25.17c0.84-6.43-1.99-12.7-7.38-16.38l-77-52.47c-5.39-3.67-12.27-4.01-17.94-0.88
			c-7.62,4.21-16.58,5.86-25.21,4.65c-6.4-0.9-12.89,1.99-16.55,7.36l-91.7,134.56h-11.2L282.11,18.55z M285.32,142.44
			c-31.77,0-57.85,24.77-59.98,56.01h-36.98l86.1-126.34c0,0,0,0,0,0c0.49-0.72,1.3-1.15,2.13-1.15c0.11,0,0.22,0.01,0.33,0.02
			c11.74,1.64,23.91-0.6,34.29-6.33c0.82-0.45,1.86-0.39,2.67,0.16l77,52.47c0.81,0.55,1.25,1.5,1.13,2.43
			c-1.54,11.75,0.83,23.9,6.65,34.22c0.47,0.83,0.41,1.89-0.14,2.71l-28.49,41.8H345.3C343.17,167.21,317.09,142.44,285.32,142.44z
			 M330.67,198.45h-90.7c2.09-23.19,21.62-41.42,45.35-41.42C309.04,157.03,328.58,175.26,330.67,198.45z M41.51,195
			c0-5.59,4.54-10.13,10.13-10.13h17.24l-1.34,13.58H41.51V195z M22.6,230.88c0-9.83,8-17.83,17.84-17.83H447.5
			c9.83,0,17.83,8,17.83,17.83v20.24H22.6V230.88z M465.34,479.57c0,9.83-8,17.83-17.83,17.83H40.44c-9.83,0-17.84-8-17.84-17.83
			v-20.24h39.34c4.03,0,7.29-3.27,7.29-7.3c0-4.03-3.27-7.3-7.29-7.3H22.6V265.71h442.74v34.18h-69.37h0
			c-21.86,0-40.79,12.74-49.77,31.18c-0.03,0.06-0.06,0.12-0.1,0.18c-0.08,0.16-0.14,0.32-0.22,0.48c-1.07,2.27-2,4.63-2.76,7.05
			c0,0.01,0,0.01-0.01,0.02c-1.61,5.19-2.49,10.7-2.49,16.42c0,30.51,24.82,55.33,55.33,55.33h0h69.37v34.18H108.65
			c-4.03,0-7.29,3.27-7.29,7.3c0,4.03,3.27,7.3,7.29,7.3h356.68V479.57z M489.4,394.16c0,1-0.81,1.81-1.81,1.81h-91.62
			c-15.45,0-28.91-8.64-35.82-21.34c-0.31-0.58-0.61-1.16-0.9-1.76c-0.57-1.19-1.09-2.41-1.55-3.65c-1.6-4.37-2.48-9.08-2.48-13.99
			s0.88-9.63,2.48-13.99c0.46-1.25,0.98-2.47,1.55-3.65c0.29-0.59,0.59-1.18,0.9-1.76c6.91-12.7,20.37-21.34,35.82-21.34h91.62
			c1,0,1.81,0.81,1.81,1.81L489.4,394.16L489.4,394.16z"/>
	</g>
</g>
<g>
	<g>
		<path class="st0" d="M397.68,325.63c-16.32,0-29.6,13.28-29.6,29.6s13.28,29.6,29.6,29.6s29.6-13.28,29.6-29.6
			S414,325.63,397.68,325.63z M397.68,370.23c-8.28,0-15.01-6.73-15.01-15.01s6.73-15.01,15.01-15.01s15.01,6.73,15.01,15.01
			S405.96,370.23,397.68,370.23z"/>
	</g>
</g>
</svg>
